<?xml version="1.0" standalone="no"?>
<!DOCTYPE svg PUBLIC "-//W3C//DTD SVG 20010904//EN"
 "http://www.w3.org/TR/2001/REC-SVG-20010904/DTD/svg10.dtd">
<svg version="1.0" xmlns="http://www.w3.org/2000/svg"
 width="300.000000pt" height="262.000000pt" viewBox="0 0 300.000000 262.000000"
 preserveAspectRatio="xMidYMid meet">

<g transform="translate(0.000000,262.000000) scale(0.100000,-0.100000)"
fill="#000000" stroke="none">
<path d="M1489 2443 c0 -5 1 -48 2 -98 2 -49 3 -105 3 -122 l-1 -33 55 0 c101
0 156 46 156 132 0 57 -19 95 -56 114 -28 15 -157 20 -159 7z m151 -38 c17
-18 25 -40 28 -79 4 -48 1 -56 -24 -84 -28 -29 -97 -52 -107 -35 -3 4 -8 56
-12 116 l-7 107 49 0 c40 0 54 -5 73 -25z"/>
<path d="M1020 2349 c-46 -26 -86 -53 -88 -58 -6 -17 10 -13 38 9 14 11 30 20
36 20 6 0 35 -45 65 -100 36 -68 59 -99 69 -97 21 4 19 9 -44 120 l-55 98 37
17 c48 21 47 21 36 31 -5 4 -46 -13 -94 -40z"/>
<path d="M1887 2255 c-55 -62 -93 -111 -86 -114 7 -2 25 11 40 30 l27 34 49
-13 c60 -16 65 -21 66 -71 1 -22 5 -41 9 -41 3 0 12 -2 20 -5 11 -5 11 13 0
112 -22 201 -11 195 -125 68z m89 -62 c-3 -4 -86 22 -86 27 0 4 17 26 38 50
l37 44 7 -59 c3 -33 5 -61 4 -62z"/>
<path d="M743 2195 c-115 -81 -56 -270 79 -252 68 9 141 83 122 124 -7 15 -8
14 -12 -9 -4 -34 -64 -88 -98 -88 -64 0 -134 61 -134 115 0 37 29 83 62 97 14
7 24 16 22 20 -7 12 -17 10 -41 -7z"/>
<path d="M2162 2088 c-42 -57 -70 -104 -65 -109 5 -5 32 24 62 66 30 41 56 74
58 71 2 -2 11 -59 19 -127 8 -68 17 -125 18 -127 2 -2 38 43 80 99 42 56 73
106 68 111 -4 4 -33 -26 -63 -67 -29 -41 -57 -75 -60 -75 -3 0 -12 59 -19 130
-7 72 -15 130 -19 129 -3 0 -39 -46 -79 -101z"/>
<path d="M470 1860 c-16 -17 -35 -51 -44 -77 -19 -55 -20 -63 -6 -63 6 0 58
-20 116 -44 l104 -44 22 41 c25 49 29 113 9 149 -19 36 -81 68 -131 68 -34 0
-47 -6 -70 -30z m126 -19 c70 -32 90 -81 59 -141 l-15 -30 -53 21 c-119 47
-147 62 -147 78 1 43 51 90 95 90 11 1 39 -8 61 -18z"/>
<path d="M2462 1837 c-12 -13 -24 -38 -28 -57 -10 -57 -25 -89 -46 -95 -30
-10 -51 14 -45 52 5 29 4 32 -12 23 -40 -21 7 -100 59 -100 37 0 66 36 74 94
9 59 38 95 63 80 10 -6 19 -23 21 -38 4 -28 22 -26 22 3 0 23 -41 61 -66 61
-11 0 -30 -10 -42 -23z"/>
<path d="M478 788 c-52 -22 -56 -32 -32 -66 16 -24 53 -29 85 -12 22 12 26 58
7 82 -12 14 -18 14 -60 -4z m60 -28 c7 -42 -51 -66 -82 -34 -23 23 -20 30 22
47 46 19 56 17 60 -13z"/>
<path d="M2466 793 c-6 -14 -5 -15 5 -6 7 7 10 15 7 18 -3 3 -9 -2 -12 -12z"/>
<path d="M2506 765 c-5 -13 -10 -14 -27 -5 -11 7 -23 9 -26 6 -3 -2 18 -16 46
-30 49 -25 51 -25 61 -7 14 27 13 38 -3 17 -17 -23 -50 -11 -42 15 8 23 0 26
-9 4z"/>
<path d="M2444 647 c28 -23 37 -39 33 -51 -11 -29 -35 -29 -72 0 -19 15 -38
25 -41 22 -2 -3 11 -17 31 -32 44 -34 76 -31 90 7 8 25 6 31 -15 48 -46 36
-65 41 -26 6z"/>
<path d="M563 624 c-24 -14 -43 -29 -43 -34 0 -6 23 4 50 21 28 17 50 33 50
35 0 9 -17 3 -57 -22z"/>
<path d="M615 600 c-4 -7 -15 -10 -26 -7 -13 4 -21 -3 -28 -26 -14 -38 -6 -48
10 -13 7 14 20 26 30 26 18 0 35 17 26 26 -3 3 -8 0 -12 -6z"/>
<path d="M662 494 c-36 -31 -40 -37 -29 -55 6 -10 16 -19 21 -19 4 0 3 7 -4
16 -11 12 -10 18 4 32 15 15 18 15 27 2 8 -12 9 -10 4 6 -7 25 23 43 37 22 5
-8 8 -9 8 -2 0 6 -6 17 -13 23 -11 8 -23 2 -55 -25z"/>
<path d="M2295 520 c-3 -5 1 -10 10 -10 18 0 30 -24 20 -40 -5 -8 -15 -4 -31
11 -41 39 -26 5 16 -36 22 -21 40 -34 40 -28 0 6 -7 16 -15 23 -23 19 -9 29
33 24 l37 -4 -32 12 c-18 6 -33 17 -33 24 0 18 -37 37 -45 24z"/>
<path d="M2170 399 c-19 -17 -27 -25 -16 -18 16 12 22 9 50 -24 42 -51 56 -47
15 4 -31 40 -32 42 -14 55 10 8 14 14 9 14 -5 0 -25 -14 -44 -31z"/>
<path d="M768 381 c-48 -22 -61 -35 -27 -26 31 8 54 -15 46 -45 -3 -11 -1 -20
3 -20 7 0 40 83 40 102 0 12 -21 8 -62 -11z m37 -21 c-6 -17 -9 -19 -22 -9
-13 11 -13 14 3 26 22 16 28 11 19 -17z"/>
<path d="M906 281 c-22 -22 -37 -43 -34 -46 3 -3 17 8 31 25 14 16 27 30 29
30 2 0 2 -20 0 -45 -2 -25 -2 -45 1 -45 3 0 22 9 41 21 40 24 43 21 20 -22 -8
-17 -13 -33 -10 -37 3 -3 8 -3 10 -1 8 9 45 99 40 99 -3 0 -22 -9 -44 -20 -22
-11 -41 -20 -43 -20 -1 0 -1 15 1 34 8 66 0 71 -42 27z"/>
<path d="M1956 267 c-16 -12 -16 -15 4 -60 12 -26 25 -47 30 -47 17 0 40 12
40 22 0 6 -7 5 -15 -2 -18 -15 -17 -16 -40 34 -18 38 -18 39 0 52 10 8 14 14
9 14 -6 0 -18 -6 -28 -13z"/>
<path d="M1125 209 c-4 -5 -1 -24 5 -40 16 -38 1 -60 -27 -39 -17 13 -17 13
-1 -4 29 -32 48 -14 45 44 -2 49 -9 61 -22 39z"/>
<path d="M1829 168 c-7 -24 -14 -45 -16 -48 -2 -2 -20 13 -38 35 l-34 40 1
-60 c1 -47 2 -51 5 -18 l4 42 33 -36 33 -36 13 49 12 49 15 -43 c20 -56 30
-46 13 13 -17 61 -27 64 -41 13z"/>
<path d="M1375 145 c-14 -13 -25 -31 -25 -40 0 -25 38 -55 68 -54 27 2 27 2 2
6 -35 7 -50 21 -50 49 0 33 28 57 59 49 20 -4 22 -3 11 5 -23 15 -39 12 -65
-15z"/>
<path d="M1550 150 c-24 -24 -25 -48 -4 -78 36 -52 120 -5 98 55 -5 15 -16 28
-24 31 -12 4 -13 2 -2 -9 26 -28 11 -89 -23 -89 -50 0 -62 74 -15 97 18 9 20
13 8 13 -10 0 -27 -9 -38 -20z"/>
</g>
</svg>
