<?xml version="1.0" standalone="no"?>
<!DOCTYPE svg PUBLIC "-//W3C//DTD SVG 20010904//EN"
 "http://www.w3.org/TR/2001/REC-SVG-20010904/DTD/svg10.dtd">
<svg version="1.0" xmlns="http://www.w3.org/2000/svg"
 width="114.000000pt" height="148.000000pt" viewBox="0 0 114.000000 148.000000"
 preserveAspectRatio="xMidYMid meet">

<g transform="translate(0.000000,148.000000) scale(0.100000,-0.100000)"
fill="#000000" stroke="none">
<path d="M47 1423 c-4 -3 -7 -26 -7 -50 0 -42 0 -43 35 -43 39 0 70 34 59 64
-10 26 -71 46 -87 29z m68 -33 c8 -25 -10 -50 -36 -50 -15 0 -19 7 -19 35 0
30 3 35 24 35 16 0 27 -7 31 -20z"/>
<path d="M150 1380 l0 -50 38 1 c30 2 32 3 10 6 -32 5 -38 33 -8 33 11 0 20 5
20 10 0 6 -9 10 -20 10 -11 0 -20 5 -20 10 0 6 12 10 26 10 14 0 23 4 19 10
-3 6 -19 10 -36 10 -28 0 -29 -1 -29 -50z"/>
<path d="M277 1424 c-4 -4 -7 -27 -7 -51 0 -42 1 -43 33 -43 17 0 37 4 43 8
19 12 25 47 12 65 -14 18 -69 33 -81 21z m70 -30 c8 -22 -9 -48 -36 -52 -18
-3 -21 1 -21 32 0 32 3 36 25 36 15 0 28 -7 32 -16z"/>
<path d="M392 1380 c-12 -27 -17 -50 -12 -50 5 0 12 5 15 10 9 14 52 12 58 -2
2 -7 7 -10 11 -7 8 7 -32 99 -43 99 -5 0 -18 -22 -29 -50z m41 6 c3 -8 -1 -17
-9 -20 -9 -4 -14 1 -14 14 0 23 15 27 23 6z"/>
<path d="M487 1424 c-11 -11 -9 -94 3 -94 6 0 10 14 10 32 l0 32 33 -32 c18
-18 36 -32 40 -32 4 0 7 20 7 45 0 25 -4 45 -10 45 -5 0 -10 -15 -10 -32 l0
-33 -33 38 c-18 21 -35 35 -40 31z"/>
<path d="M613 1423 c-19 -7 -16 -34 5 -49 16 -13 16 -15 -3 -30 -20 -15 -19
-16 5 -12 29 4 40 37 16 50 -20 11 -21 28 0 28 8 0 12 5 9 10 -7 11 -13 11
-32 3z"/>
<path d="M720 1402 c-25 -27 -25 -27 -28 -4 -6 40 -22 23 -22 -23 0 -25 5 -45
10 -45 6 0 10 9 10 20 0 11 4 20 10 20 5 0 14 -9 20 -20 6 -11 16 -20 22 -20
6 0 4 9 -5 23 -13 20 -13 25 1 45 22 33 11 35 -18 4z"/>
<path d="M767 1423 c-4 -3 -7 -26 -7 -50 l0 -43 38 1 c30 2 32 3 10 6 -35 5
-37 33 -3 33 14 0 25 5 25 10 0 6 -11 10 -25 10 -14 0 -25 5 -25 10 0 6 12 10
26 10 14 0 23 4 19 10 -7 11 -48 14 -58 3z"/>
<path d="M58 1282 c-14 -3 -18 -14 -18 -48 l0 -44 40 0 c47 0 66 24 51 63 -9
24 -40 36 -73 29z m55 -34 c13 -20 -6 -48 -34 -48 -15 0 -19 7 -19 36 0 31 3
35 21 32 12 -2 27 -10 32 -20z"/>
<path d="M183 1279 c-18 -22 -43 -89 -33 -89 5 0 12 5 15 10 9 14 52 12 58 -2
2 -7 7 -11 10 -8 3 3 -4 28 -16 54 -18 39 -25 46 -34 35z m13 -56 c-11 -11
-19 6 -11 24 8 17 8 17 12 0 3 -10 2 -21 -1 -24z"/>
<path d="M374 1273 c-15 -16 -15 -18 7 -36 23 -18 23 -19 4 -33 -18 -14 -18
-14 3 -14 33 0 40 29 13 51 l-23 19 23 8 c18 7 19 10 6 15 -9 3 -24 -1 -33
-10z"/>
<path d="M452 1282 c-7 -2 -12 -22 -12 -48 l0 -44 38 1 c30 2 32 3 10 6 -16 2
-28 10 -28 18 0 8 12 16 28 18 l27 4 -27 2 c-17 0 -28 7 -28 15 0 9 12 16 28
18 l27 3 -25 6 c-14 3 -31 4 -38 1z"/>
<path d="M707 1272 c-24 -26 -21 -59 7 -77 51 -34 103 39 56 77 -28 23 -43 23
-63 0z m61 -34 c2 -20 -2 -28 -19 -33 -30 -10 -53 19 -38 47 15 29 53 20 57
-14z"/>
<path d="M808 1284 c-5 -4 -8 -27 -8 -51 l0 -43 38 1 c29 2 31 3 10 6 -24 4
-27 9 -30 50 -2 24 -6 41 -10 37z"/>
<path d="M915 1281 c-28 -6 -30 -9 -30 -49 l0 -42 40 1 c36 1 37 2 11 8 -38 8
-47 31 -12 31 14 0 26 4 26 8 0 5 -10 8 -21 8 -12 -1 -24 5 -26 12 -3 7 5 12
21 12 14 0 26 5 26 10 0 6 -1 9 -2 9 -2 -1 -16 -4 -33 -8z"/>
<path d="M983 1283 c-15 -6 -18 -93 -3 -93 6 0 10 7 10 15 0 8 6 15 14 15 8 0
16 -7 20 -15 3 -8 9 -15 13 -15 9 0 11 75 2 84 -9 9 -42 14 -56 9z m45 -30
c-5 -26 -38 -29 -38 -4 0 15 6 21 21 21 14 0 19 -5 17 -17z"/>
<path d="M250 1235 c0 -25 5 -45 10 -45 6 0 10 15 10 33 l1 32 28 -32 c38 -45
51 -42 51 12 0 25 -4 45 -10 45 -5 0 -10 -15 -10 -32 l-1 -33 -28 33 c-38 44
-51 41 -51 -13z"/>
<path d="M526 1265 c-3 -8 4 -21 17 -30 22 -16 22 -16 3 -30 -19 -15 -19 -15
2 -15 34 0 40 29 11 51 l-24 18 25 10 25 10 -26 0 c-15 1 -29 -6 -33 -14z"/>
<path d="M600 1235 c0 -25 5 -45 10 -45 6 0 10 9 10 20 0 11 3 20 8 20 4 0 13
-9 20 -20 7 -11 17 -20 24 -20 6 0 4 8 -6 19 -17 18 -17 21 -1 45 21 32 7 34
-20 4 l-20 -23 -3 23 c-6 40 -22 23 -22 -23z"/>
<path d="M625 1150 c-3 -5 0 -10 8 -10 8 0 17 -7 21 -15 4 -11 -1 -15 -19 -15
-14 0 -25 5 -25 11 0 5 -4 8 -9 5 -11 -7 3 -84 18 -99 16 -15 41 16 41 50 0
14 6 23 15 23 9 0 15 -9 15 -24 0 -40 -10 -54 -47 -66 -29 -10 -37 -9 -53 5
-26 23 -33 50 -21 74 8 15 7 20 -8 24 -10 2 -129 5 -264 6 l-246 2 -3 -215
c-2 -119 -2 -216 -1 -216 1 0 43 29 92 64 213 150 509 266 682 266 63 0 71 -3
105 -32 20 -18 43 -48 51 -67 13 -31 13 -36 -4 -59 -11 -14 -24 -27 -30 -29
-9 -3 -99 95 -137 149 -14 20 -15 20 -91 -21 -85 -45 -145 -88 -145 -103 0 -5
31 -46 70 -91 38 -45 70 -85 70 -88 0 -4 -10 -10 -22 -13 -13 -3 -31 -13 -42
-20 -17 -14 -17 -16 7 -68 13 -29 32 -77 42 -106 18 -55 34 -229 26 -291 -3
-32 -6 -26 -35 60 -38 110 -94 222 -141 276 l-33 38 -41 -45 c-59 -64 -142
-191 -190 -292 -22 -48 -41 -92 -41 -97 0 -14 382 -15 470 -1 135 22 271 113
324 217 104 207 76 476 -65 623 -49 52 -156 111 -233 131 -25 6 -46 15 -46 20
0 12 -38 49 -49 49 -6 0 -13 -4 -16 -10z m-393 -146 c-6 -33 25 -101 49 -107
16 -4 19 0 19 25 0 16 -9 43 -21 60 -26 36 -19 46 15 21 31 -22 42 -56 30 -92
-8 -21 -17 -27 -47 -29 -69 -6 -109 65 -71 123 21 32 33 32 26 -1z m562 -58
c39 -16 83 -70 92 -112 4 -23 0 -34 -20 -53 -16 -15 -30 -21 -35 -15 -5 5 -37
43 -71 84 l-61 75 22 18 c26 21 30 21 73 3z m-91 -68 c37 -20 86 -88 87 -122
0 -22 -27 -56 -46 -56 -7 0 -42 36 -79 80 -64 77 -67 82 -49 95 23 18 58 19
87 3z"/>
<path d="M760 914 c0 -10 72 -94 81 -94 17 0 -14 61 -41 80 -29 20 -40 24 -40
14z"/>
<path d="M672 832 c63 -85 78 -99 78 -67 0 20 -59 85 -77 85 -12 0 -12 -3 -1
-18z"/>
<path d="M870 963 c5 -10 23 -34 40 -53 26 -30 30 -32 30 -13 0 26 -46 83 -66
83 -11 0 -12 -4 -4 -17z"/>
<path d="M495 911 c-49 -21 -110 -48 -135 -60 -44 -23 -210 -121 -210 -124 0
-1 39 -2 87 -2 49 0 98 -4 109 -8 19 -6 29 2 74 62 28 39 75 89 103 112 68 56
72 59 67 58 -3 0 -45 -17 -95 -38z"/>
<path d="M496 800 c-96 -106 -200 -307 -240 -464 -35 -131 -32 -145 10 -61 79
156 194 297 317 389 l66 50 -46 50 c-25 28 -51 57 -58 64 -9 10 -19 5 -49 -28z"/>
<path d="M185 684 c-16 -3 -54 -12 -84 -20 -38 -11 -56 -12 -61 -4 -4 7 -13 3
-26 -11 -19 -22 -19 -22 2 -11 12 6 24 8 28 5 3 -3 6 -125 6 -270 l0 -263 64
0 c70 0 76 -5 77 -63 0 -31 1 -31 18 13 l19 45 -25 3 c-24 3 -25 5 -18 60 14
128 88 351 151 459 13 23 20 44 16 47 -13 8 -133 15 -167 10z"/>
<path d="M571 601 l-24 -19 37 -51 c21 -28 51 -75 67 -104 38 -69 36 -49 -6
68 -47 130 -45 128 -74 106z"/>
</g>
</svg>
